<?xml version="1.0" encoding="UTF-8"?>
<svg id="Layer_2" data-name="Layer 2" xmlns="http://www.w3.org/2000/svg" viewBox="0 0 91.41 15.35">
  <defs>
    <style>
      .cls-1 {
        fill: #e64c25;
      }

      .cls-2 {
        fill: #191919;
      }
    </style>
  </defs>
  <g id="Layer_1-2" data-name="Layer 1">
    <g>
      <path class="cls-2" d="M14.95,9.94l.73-1.63c.79.57,1.96.97,3.08.97,1.28,0,1.8-.43,1.8-1,0-1.75-5.43-.55-5.43-4.02,0-1.59,1.28-2.91,3.94-2.91,1.18,0,2.38.28,3.24.83l-.67,1.64c-.87-.49-1.76-.73-2.59-.73-1.28,0-1.78.48-1.78,1.07,0,1.72,5.43.53,5.43,3.97,0,1.56-1.3,2.9-3.97,2.9-1.48,0-2.98-.44-3.81-1.08Z"/>
      <path class="cls-2" d="M24.12,6.75V1.52h2.16v5.15c0,1.78.77,2.51,2.08,2.51s2.08-.73,2.08-2.51V1.52h2.14v5.23c0,2.75-1.58,4.27-4.23,4.27s-4.23-1.52-4.23-4.27Z"/>
      <path class="cls-2" d="M42.82,4.91c0,2.08-1.56,3.38-4.06,3.38h-1.88v2.58h-2.16V1.52h4.05c2.5,0,4.06,1.3,4.06,3.39ZM40.63,4.91c0-1.03-.67-1.63-1.99-1.63h-1.76v3.24h1.76c1.32,0,1.99-.6,1.99-1.62Z"/>
      <path class="cls-2" d="M51.6,9.13v1.74h-7.24V1.52h7.06v1.74h-4.91v2.03h4.34v1.68h-4.34v2.16h5.09Z"/>
      <path class="cls-2" d="M59.27,10.86l-1.8-2.6h-1.99v2.6h-2.16V1.52h4.05c2.5,0,4.06,1.3,4.06,3.39,0,1.4-.71,2.43-1.92,2.95l2.1,3h-2.32ZM57.24,3.28h-1.76v3.26h1.76c1.32,0,1.99-.61,1.99-1.63s-.67-1.63-1.99-1.63Z"/>
      <path class="cls-2" d="M65.29,3.25v2.47h4.33v1.74h-4.33v3.4h-2.16V1.52h7.06v1.74h-4.9Z"/>
      <path class="cls-2" d="M70.98,6.19c0-2.78,2.16-4.83,5.11-4.83s5.11,2.04,5.11,4.83-2.18,4.83-5.11,4.83-5.11-2.06-5.11-4.83ZM79.02,6.19c0-1.78-1.26-2.99-2.92-2.99s-2.92,1.22-2.92,2.99,1.25,2.99,2.92,2.99,2.92-1.21,2.92-2.99Z"/>
      <path class="cls-2" d="M91.41,1.52v9.35h-1.78l-4.66-5.67v5.67h-2.14V1.52h1.79l4.65,5.67V1.52h2.14Z"/>
      <path class="cls-1" d="M8.71,3.09v5.62H3.09V3.09h5.62V0H0v11.8h11.8V3.09h-3.09Z"/>
      <path class="cls-1" d="M68.69,14.66l.47-.28c.11.28.33.43.65.43s.45-.12.45-.3c0-.1-.04-.18-.13-.23-.09-.06-.25-.12-.47-.18-.25-.08-.41-.14-.58-.26-.17-.13-.27-.32-.27-.58s.09-.46.27-.61c.18-.15.4-.23.66-.23.45,0,.81.23,1.01.63l-.47.27c-.11-.24-.29-.36-.54-.36-.23,0-.37.12-.37.28,0,.09.04.16.11.22.08.05.22.11.43.18l.19.06s.1.04.18.07c.08.03.14.06.18.08.08.05.21.15.27.25.06.1.1.24.1.4,0,.26-.1.47-.29.62-.19.15-.43.23-.74.23-.56,0-.95-.26-1.11-.69Z"/>
      <path class="cls-1" d="M71.29,12.49h.56v2.81h-.56v-2.81Z"/>
      <path class="cls-1" d="M73.99,12.49h.56v2.81h-.42l-1.21-1.72v1.72h-.56v-2.81h.42l1.21,1.71v-1.71Z"/>
      <path class="cls-1" d="M75.39,14.93c-.28-.28-.41-.63-.41-1.04s.14-.76.41-1.04c.28-.28.63-.42,1.05-.42.51,0,.97.26,1.21.66l-.48.28c-.14-.25-.41-.4-.73-.4-.27,0-.5.08-.66.26-.16.17-.25.39-.25.67s.08.49.25.66c.17.17.39.26.66.26.32,0,.6-.15.73-.4l.48.28c-.24.41-.7.66-1.21.66-.42,0-.77-.14-1.05-.42Z"/>
      <path class="cls-1" d="M78.7,14.77h1.19v.53h-1.74v-2.81h1.72v.53h-1.17v.6h1.07v.52h-1.07v.63Z"/>
      <path class="cls-1" d="M81.83,15.3v-.41l.96-.99c.21-.22.32-.41.32-.56,0-.22-.15-.37-.37-.37s-.37.11-.47.33l-.47-.27c.18-.39.53-.59.93-.59.25,0,.47.08.66.24.18.16.27.37.27.64,0,.29-.15.59-.46.9l-.55.55h1.06v.53h-1.88Z"/>
      <path class="cls-1" d="M84.48,14.96c-.2-.27-.3-.62-.3-1.06s.1-.79.3-1.06c.2-.27.48-.4.83-.4s.63.13.83.4c.2.26.3.62.3,1.06s-.1.79-.3,1.06c-.2.26-.47.4-.83.4s-.63-.13-.83-.4ZM85.31,12.97c-.37,0-.57.32-.57.92s.2.92.57.92.58-.32.58-.92-.2-.92-.58-.92Z"/>
      <path class="cls-1" d="M87.12,14.96c-.2-.27-.3-.62-.3-1.06s.1-.79.3-1.06c.2-.27.48-.4.83-.4s.63.13.83.4c.2.26.3.62.3,1.06s-.1.79-.3,1.06c-.2.26-.47.4-.83.4s-.63-.13-.83-.4ZM87.95,12.97c-.37,0-.57.32-.57.92s.2.92.57.92.58-.32.58-.92-.2-.92-.58-.92Z"/>
      <path class="cls-1" d="M91.41,14.52c0,.52-.39.84-1.01.84s-1.01-.32-1.01-.84c0-.3.13-.52.39-.68-.2-.14-.29-.34-.29-.58,0-.26.09-.46.26-.61.18-.14.39-.22.66-.22s.48.07.65.22c.17.14.26.34.26.61s-.1.44-.29.58c.26.16.39.38.39.68ZM90.4,14.06c-.27,0-.46.14-.46.39s.19.39.46.39.46-.14.46-.39-.19-.39-.46-.39ZM90.4,12.96c-.11,0-.19.03-.26.09s-.1.14-.1.24.03.18.1.24.15.09.26.09.19-.03.26-.09c.07-.06.1-.14.1-.24s-.03-.18-.1-.24c-.07-.06-.15-.09-.26-.09Z"/>
    </g>
  </g>
</svg>